{"title":"Race 2008 720p BluRay HD x264 Race Saanson Ki mkv - &quot;Abhi","uid":7843907,"size":96390987,"categoryP":"video","categoryS":"music_videos","magnet":"?xt=urn:btih:e0083c33598ca39027a4336d51242c5462687b0f&amp;dn=Race+2008+720p+BluRay+HD+x264+Race+Saanson+Ki+mkv+-+%26quot%3BAbhi&amp;tr=udp%3A%2F%2Ftracker.openbittorrent.com%3A80&amp;tr=udp%3A%2F%2Fopen.demonii.com%3A1337&amp;tr=udp%3A%2F%2Ftracker.coppersurfer.tk%3A6969&amp;tr=udp%3A%2F%2Fexodus.desync.com%3A6969","seeders":1,"leechers":0,"uploader":"drabhi90","files":1,"time":1353421977,"description":"General\nUnique ID : 188267307098249353198703522923040386033 (0x8DA2F6E4D116E00D860BD4B59A22ABF1)\nComplete name : F:VideosRace 2008 720p BluRay nHD x264 NhaNc3-Race Saanson Ki.mkv\nFormat : Matroska\nFormat version : Version 2\nFile size : 91.9 MiB\nDuration : 3mn 47s\nOverall bit rate : 3 391 Kbps\nEncoded date : UTC 2010-10-19 19:23:33\nWriting application : mkvmerge v4.0.0 ('The Stars were mine') built on Jun 6 2010 16:18:42\nWriting library : libebml v1.0.0 + libmatroska v1.0.0\n\nVideo\nID : 1\nFormat : AVC\nFormat/Info : Advanced Video Codec\nFormat profile : &lt;a class=&quot;__cf_email__&quot; href=&quot;/cdn-cgi/l/email-protection&quot; data-cfemail=&quot;6e260709062e225a405f&quot;&gt;[email&amp;#160;protected]&lt;/a&gt;&lt;script cf-hash='f9e31' type=&quot;text/javascript&quot;&gt;\n/* &lt;![CDATA[ */!function(){try{var t=&quot;currentScript&quot;in document?document.currentScript:function(){for(var t=document.getElementsByTagName(&quot;script&quot;),e=t.length;e--;)if(t[e].getAttribute(&quot;cf-hash&quot;))return t[e]}();if(t&amp;&amp;t.previousSibling){var e,r,n,i,c=t.previousSibling,a=c.getAttribute(&quot;data-cfemail&quot;);if(a){for(e=&quot;&quot;,r=parseInt(a.substr(0,2),16),n=2;a.length-n;n+=2)i=parseInt(a.substr(n,2),16)^r,e+=String.fromCharCode(i);e=document.createTextNode(e),c.parentNode.replaceChild(e,c)}}}catch(u){}}();/* ]]&gt; */&lt;/script&gt;\nFormat settings, CABAC : Yes\nFormat settings, ReFrames : 8 frames\nCodec ID : V_MPEG4/ISO/AVC\nDuration : 3mn 47s\nBit rate : 3 100 Kbps\nWidth : 1 280 pixels\nHeight : 544 pixels\nDisplay aspect ratio : 2.35:1\nFrame rate mode : Constant\nFrame rate : 24.000 fps\nColor space : YUV\nChroma subsampling : 4:2:0\nBit depth : 8 bits\nScan type : Progressive\nBits/(Pixel*Frame) : 0.185\nStream size : 84.0 MiB (91%)\nLanguage : English\nDefault : No\nForced : No\n\nAudio\nID : 2\nFormat : AC-3\nFormat/Info : Audio Coding 3\nMode extension : CM (complete main)\nFormat settings, Endianness : Big\nCodec ID : A_AC3\nDuration : 3mn 47s\nBit rate mode : Constant\nBit rate : 224 Kbps\nChannel(s) : 6 channels\nChannel positions : Front: L C R, Side: L R, LFE\nSampling rate : 48.0 KHz\nBit depth : 16 bits\nCompression mode : Lossy\nDelay relative to video : 21ms\nStream size : 6.07 MiB (7%)\nLanguage : Hindi\nDefault : No\nForced : No","torrent":{"xt":"urn:btih:e0083c33598ca39027a4336d51242c5462687b0f","amp;dn":"Race+2008+720p+BluRay+HD+x264+Race+Saanson+Ki+mkv+-+%26quot%3BAbhi","amp;tr":["udp%3A%2F%2Ftracker.openbittorrent.com%3A80","udp%3A%2F%2Fopen.demonii.com%3A1337","udp%3A%2F%2Ftracker.coppersurfer.tk%3A6969","udp%3A%2F%2Fexodus.desync.com%3A6969"],"infoHash":"e0083c33598ca39027a4336d51242c5462687b0f","infoHashBuffer":{"type":"Buffer","data":[224,8,60,51,89,140,163,144,39,164,51,109,81,36,44,84,98,104,123,15]},"announce":[],"urlList":[]}}